<?xml version="1.0" encoding="UTF-8" standalone="no"?>
<!-- Created with Inkscape (http://www.inkscape.org/) -->

<svg
   width="120"
   height="120"
   viewBox="0 0 120 120"
   version="1.1"
   id="svg1"
   inkscape:version="1.3 (0e150ed6c4, 2023-07-21)"
   sodipodi:docname="target_sourcefile.svg"
   xmlns:inkscape="http://www.inkscape.org/namespaces/inkscape"
   xmlns:sodipodi="http://sodipodi.sourceforge.net/DTD/sodipodi-0.dtd"
   xmlns="http://www.w3.org/2000/svg"
   xmlns:svg="http://www.w3.org/2000/svg">
  <sodipodi:namedview
     id="namedview1"
     pagecolor="#ffffff"
     bordercolor="#000000"
     borderopacity="0.25"
     inkscape:showpageshadow="2"
     inkscape:pageopacity="0.0"
     inkscape:pagecheckerboard="0"
     inkscape:deskcolor="#d1d1d1"
     inkscape:document-units="px"
     inkscape:zoom="4"
     inkscape:cx="77.625"
     inkscape:cy="56.125"
     inkscape:window-width="1920"
     inkscape:window-height="991"
     inkscape:window-x="-9"
     inkscape:window-y="-9"
     inkscape:window-maximized="1"
     inkscape:current-layer="layer1" />
  <defs
     id="defs1" />
  <g
     inkscape:label="Ebene 1"
     inkscape:groupmode="layer"
     id="layer1">
    <path
       d="m 42.835872,12.029197 c -2.685879,0.98868 -5.284467,2.200009 -7.768661,3.621346 -2.591412,1.495995 -5.047218,3.215464 -7.339421,5.138803 -2.292128,1.921533 -4.41212,4.039505 -6.335843,6.329795 -1.921246,2.292444 -3.638686,4.74824 -5.132758,7.339423 -1.497531,2.590908 -2.765895,5.307667 -3.790624,8.119309 -1.022114,2.810901 -1.796883,5.705665 -2.315483,8.651328 -0.5191859,2.946091 -0.7801419,5.93189 -0.7798915,8.923379 -2.504e-4,2.99149 0.2606929,5.977291 0.7798915,8.923384 0.518257,2.947712 1.293028,5.844514 2.315483,8.657372 1.025054,2.809569 2.29341,5.524295 3.790624,8.113262 1.494072,2.591184 3.211512,5.04698 5.132758,7.339422 1.923454,2.292383 4.043456,4.412392 6.335843,6.335842 2.292203,1.923338 4.748009,3.642808 7.339421,5.138798 2.484194,1.42134 5.082782,2.63268 7.768661,3.62134"
       style="fill:none;stroke:#ffcc00;stroke-width:14.5483"
       id="path6"
       sodipodi:nodetypes="ccccccccccccscc"
       inkscape:export-filename="target.png"
       inkscape:export-xdpi="96"
       inkscape:export-ydpi="96" />
    <path
       d="m 78.335935,108.44524 c 2.811438,-1.02279 5.528191,-2.28912 8.119309,-3.78458 2.591412,-1.49599 5.047218,-3.21546 7.339422,-5.138798 2.292386,-1.92345 4.412393,-4.043459 6.335844,-6.335842 1.92333,-2.292205 3.6428,-4.748011 5.1388,-7.339422 1.49514,-2.589179 2.76147,-5.303897 3.78458,-8.113262 1.02245,-2.812858 1.79723,-5.70966 2.31549,-8.657372 0.52121,-2.945912 0.78419,-5.931717 0.78593,-8.923384 -5.5e-4,-1.074919 -0.0348,-2.14956 -0.10272,-3.222333 -0.0671,-1.074999 -0.16787,-2.147622 -0.30229,-3.216284 -0.13578,-1.069096 -0.30511,-2.133656 -0.50784,-3.192104 -0.20274,-1.057076 -0.43864,-2.107521 -0.70734,-3.149784 -0.26584,-1.04089 -0.56422,-2.073188 -0.89476,-3.095374 -0.33278,-1.024875 -0.69772,-2.03903 -1.09426,-3.040962 -0.39611,-1.000633 -0.82354,-1.988577 -1.28167,-2.962368 -0.45943,-0.974406 -0.94937,-1.934124 -1.46911,-2.877733 -0.51895,-0.941962 -1.06738,-1.867401 -1.64441,-2.774951 -0.57642,-0.909509 -1.18129,-1.800674 -1.81369,-2.672178 -0.63211,-0.870911 -1.29141,-1.721751 -1.97693,-2.551266 -0.685798,-0.830263 -1.397524,-1.63876 -2.134115,-2.424305 -0.737704,-0.783476 -1.499832,-1.543588 -2.28526,-2.27921 -0.783561,-0.736498 -1.590044,-1.448223 -2.418262,-2.134118 -0.829422,-0.687569 -1.680264,-1.348888 -2.551263,-1.982972 -0.871551,-0.632411 -1.762717,-1.237276 -2.672223,-1.813696 -0.909538,-0.577149 -1.836995,-1.125561 -2.781,-1.644417 -0.943688,-0.517697 -1.903405,-1.005621 -2.877731,-1.463046 -0.973792,-0.458141 -1.961736,-0.885577 -2.962369,-1.28168"
       style="fill:none;stroke:#ffcc00;stroke-width:14.5483"
       id="path3"
       sodipodi:nodetypes="ccssccccccccccccccccccccccc" />
  </g>
</svg>
